<?xml version="1.0" encoding="utf-8"?>
<!-- Generator: Adobe Illustrator 27.3.1, SVG Export Plug-In . SVG Version: 6.00 Build 0)  -->
<svg version="1.1" id="Layer_1" xmlns="http://www.w3.org/2000/svg" xmlns:xlink="http://www.w3.org/1999/xlink" x="0px" y="0px"
	 viewBox="0 0 12 12" style="enable-background:new 0 0 12 12;" xml:space="preserve">
<style type="text/css">
	.st0{fill:#44AB55;}
	.st1{fill:#FFFFFF;}
</style>
<g>
	<path class="st0" d="M6,11.95c-0.8,0-1.58-0.16-2.31-0.47c-0.71-0.3-1.34-0.73-1.89-1.27C1.25,9.66,0.82,9.02,0.52,8.31
		C0.21,7.58,0.05,6.8,0.05,6s0.16-1.58,0.47-2.31c0.3-0.71,0.73-1.34,1.27-1.89c0.55-0.55,1.18-0.97,1.89-1.27
		C4.42,0.21,5.2,0.05,6,0.05s1.58,0.16,2.31,0.47c0.71,0.3,1.34,0.73,1.89,1.27c0.55,0.55,0.97,1.18,1.27,1.89
		C11.79,4.42,11.95,5.2,11.95,6s-0.16,1.58-0.47,2.31c-0.3,0.71-0.73,1.34-1.27,1.89c-0.55,0.55-1.18,0.97-1.89,1.27
		C7.58,11.79,6.8,11.95,6,11.95z"/>
	<path class="st1" d="M2.89,6.77c0.32,0.52,0.88,1.34,1.3,1.88c0.2,0.25,0.56,0.28,0.8,0.05C6.35,7.42,7.61,5.8,9.11,3.55
		C9.2,3.42,9.16,3.24,9.02,3.17l0,0C8.91,3.11,8.78,3.13,8.7,3.22c-1.67,1.77-2.53,2.61-4.2,4c0,0-0.52-0.33-1.16-0.85
		C3.21,6.26,3.01,6.29,2.9,6.43l0,0C2.83,6.53,2.82,6.67,2.89,6.77z"/>
</g>
</svg>
