<svg width="228" height="30" viewBox="0 0 228 30" fill="none" xmlns="http://www.w3.org/2000/svg">
<g clip-path="url(#clip0_1_1370)">
<path d="M37.98 24.4025V4.44294H42.2478V12.5081H51.3272V4.44294H55.6099V24.4025H51.3272V15.8953H42.2478V24.4025H37.98Z" fill="#0065FF"/>
<path d="M66.3557 24.7001C64.7618 24.7001 63.3838 24.3863 62.2269 23.7612C61.0699 23.136 60.1811 22.247 59.5604 21.0966C58.9397 19.9437 58.6294 18.5793 58.6294 16.9986C58.6294 15.4179 58.9373 14.1011 59.553 12.9387C60.1687 11.7764 61.0401 10.8708 62.1698 10.2195C63.2994 9.56817 64.6227 9.24253 66.1447 9.24253C67.17 9.24253 68.1259 9.39941 69.0122 9.71079C69.8986 10.0246 70.6781 10.4952 71.3485 11.1251C72.0188 11.755 72.5452 12.5442 72.9225 13.4902C73.2999 14.4363 73.4886 15.5534 73.4886 16.8394V17.9637H60.3499V15.4441H71.4304L69.4715 16.1144C69.4715 15.3371 69.3474 14.6621 69.1016 14.0845C68.8533 13.5092 68.4859 13.0624 67.9968 12.7438C67.5077 12.4277 66.9019 12.2684 66.1844 12.2684C65.4669 12.2684 64.8387 12.4301 64.3298 12.751C63.8208 13.0719 63.436 13.5068 63.1753 14.0559C62.9146 14.605 62.783 15.2325 62.783 15.9385V17.7189C62.783 18.5841 62.9345 19.3138 63.2374 19.9033C63.5403 20.4928 63.9648 20.9349 64.511 21.2297C65.0572 21.5244 65.6928 21.6718 66.4202 21.6718C66.9143 21.6718 67.3612 21.6053 67.7634 21.4698C68.1631 21.3367 68.5082 21.137 68.7913 20.8731C69.0768 20.6093 69.2928 20.286 69.4417 19.901L73.2478 20.5832C72.997 21.4056 72.5576 22.1258 71.9319 22.7462C71.3063 23.3666 70.5267 23.8468 69.5882 24.1867C68.6497 24.5266 67.5697 24.6953 66.3482 24.6953L66.3557 24.7001Z" fill="#0065FF"/>
<path d="M81.0037 24.6977C80.0155 24.6977 79.1267 24.5313 78.3372 24.1962C77.5477 23.861 76.9295 23.3619 76.4752 22.6963C76.0233 22.0307 75.7974 21.2035 75.7974 20.2123C75.7974 19.3828 75.9587 18.6839 76.279 18.123C76.6018 17.5596 77.0387 17.1104 77.5949 16.7705C78.1485 16.4305 78.7791 16.1715 79.4842 15.9932C80.1893 15.8149 80.9267 15.6889 81.7013 15.6176C82.605 15.5297 83.335 15.4465 83.8911 15.3704C84.4447 15.2943 84.8519 15.1731 85.1076 15.0091C85.3634 14.8451 85.4925 14.6003 85.4925 14.2794V14.2128C85.4925 13.785 85.3981 13.4237 85.2119 13.1289C85.0257 12.8342 84.7476 12.6083 84.3802 12.4515C84.0128 12.2946 83.5659 12.2161 83.0445 12.2161C82.5231 12.2161 82.0315 12.2946 81.6318 12.4515C81.2296 12.6083 80.9044 12.8151 80.6536 13.0742C80.4028 13.3333 80.2142 13.6233 80.095 13.9442L76.2467 13.3405C76.5174 12.4657 76.9643 11.7241 77.5899 11.118C78.2156 10.5095 78.9902 10.0459 79.9187 9.72506C80.8473 9.40416 81.8925 9.24253 83.0594 9.24253C83.8985 9.24253 84.7154 9.33761 85.5074 9.53014C86.2994 9.72268 87.0119 10.0198 87.64 10.4215C88.2707 10.8232 88.7697 11.3485 89.1371 11.9951C89.5046 12.6416 89.6908 13.4165 89.6908 14.3198V24.4077H85.7184V22.3302H85.5794C85.3286 22.7938 84.991 23.2026 84.5714 23.5568C84.1518 23.9109 83.6453 24.189 83.0544 24.3935C82.461 24.5979 81.7783 24.7025 81.0037 24.7025V24.6977ZM82.1929 21.8715C82.8558 21.8715 83.4368 21.7455 83.9358 21.4959C84.4348 21.2463 84.8246 20.9064 85.1052 20.4786C85.3857 20.0507 85.5247 19.5729 85.5247 19.0452V17.4241C85.4031 17.5121 85.2169 17.5929 84.9661 17.6642C84.7154 17.7355 84.4348 17.7973 84.127 17.852C83.8191 17.9067 83.5162 17.9542 83.2183 17.9994C82.9203 18.0445 82.6547 18.0802 82.4213 18.1063C81.9074 18.1776 81.4555 18.2941 81.0633 18.4557C80.671 18.6174 80.3681 18.8289 80.1546 19.0928C79.9411 19.3566 79.8318 19.6942 79.8318 20.1054C79.8318 20.4904 79.9336 20.8137 80.1397 21.0752C80.3457 21.339 80.6238 21.5363 80.9788 21.6718C81.3339 21.8049 81.7386 21.8739 82.1954 21.8739L82.1929 21.8715Z" fill="#0065FF"/>
<path d="M97.4703 4.44294V24.4025H93.272V4.44294H97.4703Z" fill="#0065FF"/>
<path d="M109.225 9.42758V12.4939H99.9492V9.42758H109.225ZM102.104 5.86447H106.303V20.0242C106.303 20.4972 106.412 20.849 106.63 21.0748C106.849 21.303 107.216 21.4171 107.728 21.4171C107.887 21.4171 108.11 21.3981 108.4 21.3577C108.688 21.3173 108.909 21.2793 109.058 21.2436L109.659 24.2576C109.192 24.3907 108.728 24.4858 108.266 24.5381C107.805 24.5928 107.363 24.6189 106.943 24.6189C105.376 24.6189 104.177 24.2529 103.348 23.5208C102.519 22.7886 102.102 21.7404 102.102 20.3736V5.86447H102.104Z" fill="#0065FF"/>
<path d="M116.152 15.736V24.4025H111.954V4.44294H116.068V13.1641H115.733C116.142 11.9138 116.766 10.9464 117.6 10.2642C118.434 9.58199 119.514 9.2397 120.84 9.2397C121.922 9.2397 122.866 9.46552 123.673 9.91715C124.48 10.3688 125.108 11.0153 125.555 11.8591C126.001 12.703 126.227 13.7108 126.227 14.8803V24.4049H122.017V15.5768C122.017 14.6474 121.768 13.92 121.269 13.3923C120.77 12.8646 120.078 12.6008 119.191 12.6008C118.603 12.6008 118.079 12.7244 117.617 12.9692C117.155 13.214 116.795 13.5706 116.54 14.0341C116.284 14.4976 116.155 15.0657 116.155 15.736H116.152Z" fill="#0065FF"/>
<path d="M136.677 24.4025V4.44294H144.805C146.392 4.44294 147.74 4.71154 148.85 5.24636C149.959 5.78118 150.806 6.53706 151.389 7.50925C151.973 8.48382 152.263 9.62478 152.263 10.9393C152.263 12.2537 151.968 13.3852 151.375 14.336C150.781 15.2868 149.925 16.0141 148.8 16.5204C147.675 17.0243 146.312 17.2763 144.708 17.2763H139.197V13.9675H144.023C144.9 13.9675 145.62 13.8534 146.178 13.6253C146.737 13.3971 147.156 13.0595 147.437 12.6079C147.717 12.1563 147.857 11.6001 147.857 10.9393C147.857 10.2784 147.717 9.69133 147.437 9.23257C147.156 8.77381 146.734 8.42202 146.171 8.18194C145.607 7.93949 144.885 7.82064 144.008 7.82064H140.945V24.4049H136.677V24.4025ZM148.276 24.4025L143.196 15.32H147.827L153.003 24.4025H148.274H148.276Z" fill="#0065FF"/>
<path d="M162.043 24.7001C160.446 24.7001 159.071 24.3863 157.914 23.7612C156.757 23.136 155.868 22.247 155.247 21.0966C154.627 19.9437 154.316 18.5793 154.316 16.9986C154.316 15.4179 154.624 14.1011 155.24 12.9387C155.856 11.7764 156.727 10.8708 157.857 10.2195C158.984 9.56817 160.31 9.24253 161.829 9.24253C162.855 9.24253 163.81 9.39941 164.697 9.71079C165.583 10.0246 166.363 10.4952 167.033 11.1251C167.706 11.755 168.23 12.5442 168.607 13.4902C168.984 14.4363 169.173 15.5534 169.173 16.8394V17.9637H156.034V15.4441H167.115L165.156 16.1144C165.156 15.3371 165.032 14.6621 164.786 14.0845C164.538 13.5092 164.17 13.0624 163.681 12.7438C163.192 12.4277 162.586 12.2684 161.869 12.2684C161.151 12.2684 160.523 12.4301 160.014 12.751C159.505 13.0719 159.121 13.5068 158.86 14.0559C158.599 14.605 158.468 15.2325 158.468 15.9385V17.7189C158.468 18.5841 158.619 19.3138 158.922 19.9033C159.225 20.4928 159.649 20.9349 160.196 21.2297C160.742 21.5244 161.377 21.6718 162.105 21.6718C162.599 21.6718 163.046 21.6053 163.448 21.4698C163.85 21.3367 164.193 21.137 164.476 20.8731C164.761 20.6093 164.977 20.286 165.126 19.901L168.932 20.5832C168.679 21.4056 168.242 22.1258 167.616 22.7462C166.991 23.3666 166.211 23.8468 165.273 24.1867C164.334 24.5266 163.254 24.6953 162.033 24.6953L162.043 24.7001Z" fill="#0065FF"/>
<path d="M172.048 30.0003V9.42511H176.177V11.9423H176.373C176.569 11.5501 176.847 11.1437 177.205 10.7229C177.565 10.3046 178.036 9.95042 178.625 9.66519C179.213 9.37995 179.948 9.23733 180.834 9.23733C181.991 9.23733 183.049 9.52257 184.01 10.0954C184.971 10.6659 185.738 11.524 186.311 12.6673C186.885 13.8107 187.173 15.2345 187.173 16.9412C187.173 18.6478 186.892 20.0075 186.334 21.1532C185.775 22.2989 185.013 23.1712 184.052 23.7655C183.091 24.3597 182.009 24.6569 180.807 24.6569C179.958 24.6569 179.24 24.519 178.652 24.2409C178.064 23.9652 177.587 23.6229 177.217 23.2164C176.85 22.8099 176.566 22.4059 176.37 22.0041H176.244V30.0003H172.045H172.048ZM179.518 21.4265C180.246 21.4265 180.859 21.234 181.358 20.8513C181.857 20.4686 182.235 19.9362 182.493 19.2563C182.749 18.5789 182.878 17.8016 182.878 16.9245C182.878 16.0474 182.749 15.2773 182.493 14.6069C182.237 13.9366 181.86 13.4113 181.366 13.0263C180.872 12.6436 180.256 12.451 179.518 12.451C178.781 12.451 178.19 12.6364 177.686 13.0072C177.182 13.378 176.8 13.8962 176.539 14.5618C176.278 15.2273 176.147 16.0141 176.147 16.9269C176.147 17.8397 176.281 18.6169 176.547 19.292C176.812 19.9671 177.197 20.49 177.701 20.8656C178.205 21.2411 178.811 21.4289 179.521 21.4289L179.518 21.4265Z" fill="#0065FF"/>
<path d="M197.106 24.6977C195.539 24.6977 194.181 24.3744 193.034 23.7255C191.887 23.079 191.003 22.1757 190.383 21.0205C189.762 19.8653 189.452 18.5175 189.452 16.982C189.452 15.4465 189.762 14.0726 190.383 12.9174C191.003 11.7598 191.887 10.8589 193.034 10.2123C194.181 9.5658 195.539 9.24253 197.106 9.24253C198.673 9.24253 200.043 9.5658 201.185 10.2123C202.327 10.8589 203.209 11.7621 203.829 12.9174C204.45 14.0749 204.76 15.4298 204.76 16.982C204.76 18.5342 204.45 19.8653 203.829 21.0205C203.209 22.1781 202.327 23.079 201.185 23.7255C200.043 24.3721 198.682 24.6977 197.106 24.6977ZM197.106 21.5363C197.853 21.5363 198.476 21.3367 198.98 20.9397C199.484 20.5427 199.862 19.9984 200.113 19.3043C200.366 18.6126 200.49 17.833 200.49 16.9677C200.49 16.1025 200.363 15.2967 200.113 14.6098C199.862 13.9228 199.482 13.3809 198.98 12.9887C198.479 12.5965 197.851 12.3992 197.106 12.3992C196.361 12.3992 195.738 12.5965 195.239 12.9887C194.74 13.3809 194.365 13.9228 194.112 14.6098C193.859 15.2967 193.734 16.0835 193.734 16.9677C193.734 17.852 193.861 18.6126 194.112 19.3043C194.363 19.996 194.74 20.5404 195.239 20.9397C195.738 21.3367 196.361 21.5363 197.106 21.5363Z" fill="#0065FF"/>
<path d="M207.683 24.4016V9.42419H211.74V12.0365H211.909C212.197 11.1071 212.681 10.4059 213.356 9.93287C214.032 9.45985 214.809 9.22215 215.685 9.22215C215.899 9.22215 216.132 9.23403 216.385 9.25543C216.636 9.27682 216.857 9.31247 217.043 9.35526V12.9445C216.857 12.8827 216.586 12.8328 216.231 12.7971C215.876 12.7615 215.541 12.7425 215.223 12.7425C214.588 12.7425 214.014 12.8756 213.503 13.1371C212.989 13.4009 212.592 13.767 212.306 14.2352C212.02 14.7035 211.879 15.2502 211.879 15.8753V24.3945H207.681L207.683 24.4016Z" fill="#0065FF"/>
<path d="M227.565 9.42249V12.4888H218.29V9.42249H227.565ZM220.445 5.85938H224.643V20.0191C224.643 20.4921 224.752 20.8439 224.971 21.0697C225.189 21.2979 225.557 21.412 226.068 21.412C226.227 21.412 226.45 21.393 226.741 21.3526C227.029 21.3122 227.25 21.2742 227.399 21.2385L228 24.2525C227.533 24.3856 227.069 24.4807 226.607 24.533C226.145 24.5877 225.706 24.6138 225.283 24.6138C223.717 24.6138 222.518 24.2478 221.688 23.5157C220.859 22.7836 220.442 21.7353 220.442 20.3685V5.85938H220.445Z" fill="#0065FF"/>
<path d="M30.1827 5.74519V23.159C30.1827 24.1978 29.8947 25.1747 29.3882 26.0138C29.2045 26.318 28.9934 26.6057 28.7576 26.8719C28.4994 27.1619 28.2139 27.4281 27.901 27.6634C27.5336 27.9415 27.1314 28.1792 26.6994 28.3694C26.2699 28.5595 25.8131 28.7045 25.3364 28.7925C25.2222 28.8139 25.1055 28.8329 24.9913 28.8472C24.9168 28.8567 24.8423 28.8662 24.7678 28.8733C24.5767 28.8923 24.3805 28.8995 24.1844 28.8995H5.99582C2.68384 28.8995 0 26.3275 0 23.1566V5.74519C0 2.5719 2.68633 0 5.99582 0H24.1869C27.4988 0 30.1827 2.5719 30.1827 5.74519Z" fill="#0065FF"/>
<path d="M19.4461 4.66857C16.7921 2.62673 13.7482 1.83757 10.3717 2.26068C8.16454 2.54116 6.19572 3.36835 4.49505 4.73275C2.15134 6.61057 0.751074 9.01371 0.333974 11.9279C0.291767 12.2298 0.254526 12.5317 0.217285 12.8335V14.0196C0.244595 14.2431 0.26694 14.4689 0.299216 14.69L4.13753 11.3931C5.08346 8.02725 8.26385 5.58133 12.0426 5.61936C15.0392 5.65026 17.6263 7.15728 19.0365 9.41542L21.7029 6.95999C21.0847 6.1114 20.3324 5.34601 19.4486 4.66857H19.4461ZM23.5575 21.8566C23.0957 21.4097 22.6464 21.1411 22.0009 21.2647C21.4844 21.3598 21.2039 21.0722 20.9283 20.7156C21.0375 20.5897 21.1518 20.4756 21.2411 20.3448C21.7277 19.627 22.2839 18.9376 22.6737 18.1699C23.8306 15.888 24.0888 13.5062 23.5377 11.065L20.1313 14.35C19.6472 18.2602 16.1763 21.2861 11.9929 21.2576C8.61391 21.2338 5.73642 19.2871 4.49753 16.5179L1.69203 18.959C2.90113 21.1197 4.81284 22.7646 7.44206 23.8247C11.4144 25.4244 15.2602 24.9728 18.818 22.5911C18.9595 22.496 19.0911 22.3819 19.2276 22.2773C19.3567 22.1751 19.4834 22.0753 19.6224 21.9659C19.96 22.2274 20.2902 22.4651 20.1909 22.9548C20.0544 23.6108 20.3573 24.0601 20.8464 24.5188C22.3509 25.9355 23.8455 27.3593 25.3377 28.7879C25.8143 28.6999 26.2712 28.5549 26.7007 28.3648C27.1327 28.1746 27.5324 27.9369 27.9023 27.6588C28.2152 27.4211 28.5007 27.1573 28.7589 26.8673C27.0185 25.2034 25.2781 23.5347 23.555 21.8542L23.5575 21.8566Z" fill="white"/>
<path d="M20.5829 4.37955L22.4102 6.08623C22.6708 6.33106 22.6708 6.69474 22.4102 6.93957L13.9242 14.7456C13.728 14.9904 13.3357 14.9904 13.0751 14.8074L6.48338 9.98925L0.442871 15.1806V19.3356L6.4809 14.0753C6.74158 13.8305 7.0693 13.8305 7.32999 14.0135L14.3785 19.1383L24.7588 9.13353C25.0195 8.8887 25.4093 8.8887 25.67 9.13353L26.9759 10.3529L28.8032 2.6087L20.5804 4.37718L20.5829 4.37955Z" fill="white"/>
</g>
<defs>
<clipPath id="clip0_1_1370">
<rect width="228" height="30" fill="white"/>
</clipPath>
</defs>
</svg>
