<svg width="70" height="14" viewBox="0 0 70 14" fill="none" xmlns="http://www.w3.org/2000/svg">
<g clip-path="url(#clip0_1_1342)">
<path d="M0.749579 6.47326H3.1193C3.2346 5.86616 3.44108 5.27975 3.73182 4.73372C4.17185 3.87045 4.81444 3.12519 5.60529 2.56093C5.73763 2.46695 5.86902 2.38331 5.99946 2.30719V1.25557C5.99959 1.15766 5.98028 1.0607 5.94266 0.970225C5.90503 0.879751 5.84982 0.797546 5.78019 0.728319C5.71056 0.659091 5.62788 0.604201 5.53688 0.566792C5.44588 0.529384 5.34835 0.510192 5.24988 0.510316H0.749579C0.550778 0.510316 0.36012 0.588833 0.219547 0.728594C0.0789738 0.868356 5.96047e-07 1.05791 5.96047e-07 1.25557V5.72707C-0.000123635 5.82502 0.0191731 5.92203 0.0567873 6.01255C0.0944015 6.10308 0.149595 6.18535 0.219212 6.25465C0.28883 6.32395 0.371504 6.37893 0.462509 6.41644C0.553514 6.45395 0.651063 6.47326 0.749579 6.47326Z" fill="#1C191A"/>
<path d="M4.97217 6.47324H5.25007C5.34859 6.47324 5.44613 6.45394 5.53714 6.41642C5.62814 6.37891 5.71082 6.32394 5.78044 6.25463C5.85005 6.18533 5.90525 6.10306 5.94286 6.01254C5.98048 5.92201 5.99977 5.825 5.99965 5.72705V3.66516C5.75648 4.05175 5.55166 4.46091 5.38808 4.88688C5.18333 5.39632 5.04361 5.92926 4.97217 6.47324Z" fill="#1C191A"/>
<path d="M3.01155 7.60006C3.01123 7.34052 3.02765 7.08124 3.0607 6.82379H0.749578C0.550691 6.82404 0.360035 6.90277 0.219489 7.04268C0.0789428 7.18259 -1.57738e-07 7.37224 0 7.56998L0 12.3939C-1.57738e-07 12.5916 0.0789428 12.7813 0.219489 12.9212C0.360035 13.0611 0.550691 13.1398 0.749578 13.1401H5.60246C5.80105 13.1386 5.99109 13.0595 6.13152 12.9199C6.27195 12.7803 6.3515 12.5914 6.35298 12.3939V11.0387C5.40774 11.0011 4.62445 10.681 4.00311 10.0783C3.34144 9.43671 3.01092 8.61064 3.01155 7.60006Z" fill="#A01E22"/>
<path d="M11.9545 7.17432H7.45511C7.35652 7.17419 7.25887 7.19341 7.16775 7.23087C7.07664 7.26832 6.99385 7.32328 6.92414 7.3926C6.85442 7.46191 6.79914 7.54422 6.76147 7.63481C6.72379 7.72539 6.70447 7.82248 6.70459 7.92051V10.0068C7.00768 10.1152 7.32776 10.169 7.64983 10.1657C8.12306 10.1733 8.58962 10.0541 9.00059 9.82076C9.47171 9.52996 9.89216 9.16494 10.2455 8.74V9.48525C9.26179 10.4877 8.08149 11.0055 6.70459 11.0387V12.393C6.70607 12.5904 6.78562 12.7793 6.92605 12.919C7.06648 13.0586 7.25652 13.1377 7.45511 13.1391H11.9545C12.1531 13.1377 12.3431 13.0586 12.4835 12.919C12.624 12.7793 12.7035 12.5904 12.705 12.393V7.92051C12.705 7.72261 12.6259 7.53281 12.4852 7.39287C12.3444 7.25293 12.1535 7.17432 11.9545 7.17432Z" fill="#1C191A"/>
<path d="M11.9544 0.51033H7.1025C6.90378 0.510578 6.71327 0.589176 6.57275 0.728883C6.43223 0.868591 6.35317 1.058 6.35292 1.25558V2.11736C6.82781 1.8784 7.3511 1.74986 7.88327 1.74145C8.50776 1.74145 9.01725 1.92784 9.41173 2.30062C9.80621 2.6734 10.0031 3.15646 10.0025 3.74977C10.0093 4.257 9.89082 4.75814 9.65749 5.20926C9.6471 5.23182 9.63575 5.25437 9.62252 5.27693C9.62252 5.28257 9.6159 5.29008 9.61212 5.29572C9.53254 5.42477 9.41273 5.52442 9.27093 5.57953C9.12913 5.63464 8.97311 5.64218 8.8266 5.601C8.68009 5.55983 8.55113 5.47219 8.45933 5.35143C8.36754 5.23067 8.31794 5.08339 8.31808 4.93202C8.31675 4.79847 8.35559 4.66756 8.42962 4.55611C8.62372 4.19846 8.72447 3.79811 8.72265 3.39172C8.72265 3.0346 8.6401 2.75078 8.475 2.54027C8.39786 2.43917 8.29761 2.35779 8.18254 2.30288C8.06748 2.24797 7.94091 2.2211 7.81333 2.2245C7.41254 2.2245 6.98435 2.4726 6.52874 2.96881C6.47013 3.03272 6.41153 3.10038 6.35576 3.16805V6.07762C6.35588 6.17565 6.33656 6.27274 6.29888 6.36333C6.26121 6.45391 6.20593 6.53622 6.13621 6.60554C6.0665 6.67485 5.98371 6.72981 5.8926 6.76727C5.80148 6.80472 5.70383 6.82394 5.60524 6.82382H4.94357C4.93789 6.91779 4.93506 7.01177 4.93506 7.10575C4.93506 8.00043 5.19027 8.73409 5.70071 9.30673C5.88847 9.52035 6.11044 9.70166 6.35765 9.84335V7.57001C6.35765 7.37227 6.43659 7.18261 6.57714 7.0427C6.71769 6.90279 6.90834 6.82406 7.10723 6.82382H11.9592C12.1582 6.82382 12.3491 6.7452 12.4899 6.60526C12.6306 6.46532 12.7097 6.27553 12.7097 6.07762V1.25558C12.7096 1.15727 12.6899 1.05996 12.6518 0.969225C12.6138 0.878494 12.558 0.796137 12.4879 0.726884C12.4177 0.657632 12.3344 0.60285 12.2429 0.565687C12.1513 0.528523 12.0533 0.509711 11.9544 0.51033Z" fill="#A01E22"/>
<path d="M22.5203 0.785681V2.93403H22.3408C22.2053 2.37392 21.9532 1.94412 21.5846 1.64465C21.2346 1.35214 20.7912 1.1932 20.334 1.19637C19.9505 1.19471 19.5759 1.31162 19.2621 1.53093C18.943 1.74561 18.695 2.04939 18.5494 2.40399C18.3513 2.89199 18.2529 3.41434 18.2601 3.94054C18.2538 4.45323 18.3252 4.96393 18.4719 5.45548C18.613 5.91159 18.8336 6.25618 19.1335 6.48924C19.4335 6.72231 19.8229 6.83885 20.3019 6.83885C20.677 6.84275 21.0474 6.75497 21.3804 6.58322C21.7062 6.41218 22.0502 6.11803 22.4126 5.70076V6.2355C22.1051 6.56837 21.7335 6.83649 21.3199 7.02398C20.9003 7.19473 20.4498 7.2779 19.9965 7.26833C19.3819 7.27985 18.7735 7.14346 18.2233 6.8708C17.7191 6.6186 17.3024 6.22225 17.0266 5.73272C16.7502 5.24924 16.6052 4.70249 16.606 4.14636C16.6065 3.55376 16.7678 2.97228 17.0729 2.4632C17.3719 1.94184 17.8095 1.51235 18.3376 1.22174C18.8517 0.932762 19.4325 0.781529 20.023 0.782861C20.4998 0.790003 20.9711 0.885622 21.4125 1.0648C21.6942 1.17507 21.8735 1.22989 21.9504 1.22926C21.998 1.22957 22.0452 1.22023 22.0891 1.20181C22.1329 1.18339 22.1726 1.15628 22.2056 1.12212C22.2877 1.02659 22.3368 0.907312 22.3455 0.781921L22.5203 0.785681Z" fill="#1C191A"/>
<path d="M29.7306 0.927551V1.09577C29.5595 1.11081 29.3959 1.17261 29.258 1.27433C29.1048 1.39964 28.8629 1.74861 28.532 2.32125L27.1784 4.5664V6.07006C27.1784 6.38959 27.1955 6.58851 27.2295 6.66683C27.2725 6.75461 27.3423 6.82665 27.4289 6.87264C27.5507 6.93891 27.6881 6.97138 27.8269 6.96662H28.1766V7.13578H24.6792V6.9544H25.0053C25.1567 6.96264 25.3076 6.93018 25.442 6.86042C25.5283 6.81094 25.5949 6.7337 25.6311 6.64145C25.6645 6.56815 25.6812 6.37612 25.6812 6.06536V4.82297L24.2123 2.16619C23.9211 1.64179 23.7157 1.33323 23.596 1.2405C23.4569 1.14131 23.2888 1.09045 23.1177 1.09577V0.927551H26.1075V1.09577H25.9742C25.8432 1.08472 25.7118 1.11182 25.5961 1.17378C25.5662 1.19055 25.5407 1.21426 25.522 1.24289C25.5032 1.27152 25.4917 1.30423 25.4883 1.33824C25.4883 1.44851 25.6109 1.72449 25.856 2.16619L26.9828 4.21868L28.1029 2.34945C28.3821 1.89209 28.5216 1.58853 28.5216 1.4388C28.5209 1.39716 28.5095 1.3564 28.4885 1.32038C28.4675 1.28436 28.4376 1.25428 28.4016 1.23298C28.2976 1.15686 28.1057 1.11175 27.8269 1.09577V0.927551H29.7306Z" fill="#1C191A"/>
<path d="M34.0288 3.83995C34.6205 3.97716 35.0361 4.14319 35.2756 4.33804C35.4403 4.46528 35.5727 4.62917 35.6622 4.81655C35.7517 5.00392 35.7957 5.20955 35.7907 5.41691C35.7937 5.6404 35.744 5.86148 35.6455 6.0624C35.547 6.26332 35.4025 6.43847 35.2236 6.57379C34.7617 6.94218 34.089 7.1267 33.2055 7.12732H30.0342V6.9544C30.3228 6.9544 30.5185 6.92746 30.6212 6.87358C30.7132 6.83174 30.7889 6.76111 30.8367 6.67247C30.8783 6.58695 30.8991 6.37737 30.8991 6.04187V2.01488C30.8991 1.68032 30.8783 1.46887 30.8367 1.38241C30.7906 1.28968 30.7134 1.21588 30.6183 1.17378C30.5144 1.12177 30.3196 1.09577 30.0342 1.09577V0.927551H33.024C33.7386 0.927551 34.2443 0.990204 34.5411 1.11551C34.826 1.23137 35.0707 1.42732 35.2453 1.67938C35.4113 1.9146 35.501 2.19463 35.5024 2.48196C35.5026 2.77976 35.3855 3.0658 35.1763 3.2789C34.9576 3.51572 34.5751 3.70274 34.0288 3.83995ZM32.3548 4.07302V6.0616V6.28997C32.3456 6.35757 32.3522 6.42636 32.3741 6.491C32.396 6.55564 32.4327 6.61438 32.4811 6.66266C32.5296 6.71093 32.5886 6.74745 32.6536 6.76936C32.7185 6.79127 32.7877 6.79799 32.8557 6.789C33.092 6.79099 33.325 6.73515 33.5344 6.62642C33.7365 6.52145 33.9015 6.35747 34.007 6.15652C34.119 5.94451 34.1759 5.70803 34.1725 5.4686C34.177 5.19522 34.1071 4.92571 33.9702 4.68858C33.8467 4.46832 33.6498 4.29781 33.4134 4.20647C33.1781 4.11343 32.8217 4.0702 32.3519 4.07302H32.3548ZM32.3548 3.7159C32.7908 3.7159 33.1122 3.66734 33.3189 3.57023C33.5134 3.48171 33.6777 3.33864 33.7915 3.1586C33.9093 2.9529 33.9666 2.71846 33.9569 2.48196C33.9668 2.24639 33.9105 2.01274 33.7944 1.80719C33.6826 1.63092 33.5198 1.49235 33.3274 1.40966C33.1251 1.31882 32.8 1.27465 32.3519 1.27715L32.3548 3.7159Z" fill="#1C191A"/>
<path d="M38.6206 4.30138V6.03905C38.6206 6.37455 38.6414 6.58507 38.6821 6.67247C38.729 6.76433 38.8061 6.83758 38.9004 6.88016C39.0054 6.93185 39.1991 6.95816 39.4846 6.95816V7.12732H36.2972V6.9544C36.5808 6.9544 36.7812 6.92715 36.8833 6.87358C36.9742 6.83113 37.0488 6.76057 37.096 6.67247C37.1376 6.58695 37.1584 6.37737 37.1584 6.04187V2.01488C37.1584 1.68032 37.1376 1.46887 37.096 1.38241C37.0494 1.29005 36.9723 1.2164 36.8776 1.17378C36.7736 1.12209 36.578 1.09577 36.2935 1.09577V0.927551H39.1906C39.9468 0.927551 40.4985 0.97924 40.8457 1.08262C41.1847 1.17894 41.4842 1.37965 41.7012 1.65589C41.9225 1.93501 42.0397 2.28169 42.033 2.63702C42.0382 2.85068 41.9963 3.06289 41.9105 3.25881C41.8246 3.45474 41.6967 3.62966 41.5358 3.77135C41.2782 3.98296 40.9725 4.12879 40.6454 4.19613L42.1474 6.29655C42.2687 6.47981 42.409 6.6499 42.5661 6.80404C42.693 6.89698 42.8453 6.94942 43.0028 6.9544V7.12356H41.0395L39.0299 4.30138H38.6206ZM38.6206 1.26118V3.97716H38.8825C39.3088 3.97716 39.6273 3.93769 39.8391 3.86063C40.0502 3.78328 40.227 3.63413 40.3382 3.4396C40.469 3.19614 40.5317 2.9222 40.5196 2.64642C40.5196 2.1734 40.4084 1.82442 40.186 1.5995C39.9635 1.37458 39.6056 1.2618 39.1122 1.26118H38.6206Z" fill="#1C191A"/>
<path d="M46.5581 0.840149C47.5513 0.80381 48.3582 1.09201 48.9789 1.70475C49.5996 2.31749 49.9097 3.08405 49.909 4.00441C49.9213 4.75448 49.6763 5.48634 49.2143 6.07946C48.6005 6.87264 47.7343 7.26891 46.6158 7.26829C45.4973 7.26766 44.6302 6.88987 44.0145 6.13491C43.5306 5.53236 43.275 4.77996 43.2923 4.00911C43.2923 3.08812 43.6074 2.32063 44.2376 1.70663C44.8677 1.09264 45.6413 0.80381 46.5581 0.840149ZM46.613 1.13242C46.0458 1.13242 45.612 1.42219 45.3114 2.00172C45.0694 2.47726 44.9484 3.15986 44.9484 4.04952C44.9484 5.10772 45.1352 5.89087 45.5089 6.39899C45.633 6.56959 45.7976 6.70697 45.9881 6.79881C46.1787 6.89065 46.3891 6.9341 46.6007 6.92527C46.8819 6.93524 47.1589 6.85519 47.3909 6.6969C47.6612 6.50205 47.8714 6.18879 48.0214 5.75711C48.1714 5.32544 48.2464 4.76689 48.2464 4.08147C48.2464 3.26198 48.1698 2.64861 48.0167 2.24137C47.8635 1.83413 47.6682 1.54687 47.4306 1.37959C47.191 1.21373 46.9049 1.12724 46.613 1.13242Z" fill="#1C191A"/>
<path d="M54.6702 0.785652L54.7203 2.85318H54.5313C54.465 2.37273 54.2347 1.92949 53.8791 1.59763C53.5761 1.30134 53.1697 1.13298 52.7448 1.12773C52.4745 1.11291 52.2088 1.20209 52.0028 1.37678C51.9181 1.44693 51.8497 1.53451 51.8024 1.63349C51.7551 1.73246 51.7299 1.84047 51.7286 1.95005C51.7257 2.07824 51.7584 2.20476 51.8232 2.31562C51.9364 2.48411 52.0819 2.62877 52.2514 2.74135C52.5728 2.93913 52.9058 3.11769 53.2486 3.27609C53.984 3.63383 54.4777 3.9709 54.7298 4.2873C54.9785 4.59575 55.1121 4.98028 55.1079 5.37557C55.1092 5.6289 55.0555 5.87953 54.9504 6.11033C54.8454 6.34113 54.6914 6.54666 54.4992 6.71288C54.0927 7.0888 53.5766 7.27676 52.9508 7.27676C52.7639 7.2777 52.5775 7.25784 52.395 7.21755C52.1687 7.16117 51.9474 7.08636 51.7334 6.99388C51.6194 6.94003 51.4963 6.90814 51.3704 6.8999C51.2783 6.90467 51.1898 6.93747 51.1171 6.99388C51.0198 7.06562 50.945 7.1634 50.9016 7.27582H50.7305V4.92823H50.9016C51.0358 5.58608 51.2954 6.0873 51.6804 6.43189C52.0655 6.77648 52.4811 6.95065 52.9272 6.95441C53.227 6.96908 53.521 6.86807 53.7477 6.67247C53.8429 6.59269 53.9196 6.49331 53.9725 6.3812C54.0254 6.26909 54.0532 6.1469 54.0539 6.02308C54.0533 5.87368 54.0129 5.72712 53.9367 5.5983C53.8451 5.44588 53.7239 5.31301 53.5804 5.20735C53.3122 5.02083 53.0275 4.85914 52.7297 4.7243C52.1625 4.44737 51.7548 4.21117 51.5065 4.0157C51.2727 3.83729 51.0778 3.61347 50.9337 3.35785C50.7996 3.1139 50.7306 2.83985 50.7333 2.56185C50.7301 2.32504 50.7773 2.09023 50.8716 1.87275C50.9659 1.65526 51.1052 1.46 51.2806 1.29971C51.4646 1.12661 51.6814 0.991471 51.9182 0.902108C52.1551 0.812746 52.4074 0.770929 52.6607 0.779073C52.8589 0.778746 53.0564 0.803056 53.2486 0.851437C53.4337 0.904208 53.6132 0.974709 53.7845 1.06195C53.9187 1.13765 54.0658 1.18799 54.2184 1.21044C54.2534 1.21224 54.2883 1.20664 54.3209 1.194C54.3535 1.18136 54.383 1.16198 54.4075 1.13713C54.4762 1.03098 54.5201 0.910881 54.536 0.785652H54.6702Z" fill="#1C191A"/>
<path d="M62.1798 0.927551V1.09577C62.0087 1.11047 61.845 1.1723 61.7072 1.27433C61.5534 1.39964 61.3111 1.74861 60.9803 2.32125L59.6267 4.5664V6.07006C59.6267 6.38959 59.6437 6.58851 59.6778 6.66683C59.7209 6.75483 59.7911 6.82691 59.8781 6.87264C59.9998 6.93913 60.1373 6.97161 60.2761 6.96662H60.6249V7.13578H57.1275V6.9544H57.4536C57.6053 6.96249 57.7564 6.93004 57.8913 6.86042C57.9773 6.81076 58.044 6.73358 58.0803 6.64145C58.1143 6.56815 58.1313 6.37612 58.1313 6.06536V4.82297L56.6615 2.16619C56.3697 1.64179 56.1643 1.33323 56.0452 1.2405C55.906 1.14157 55.738 1.09073 55.5669 1.09577V0.927551H58.5558V1.09577H58.4225C58.2915 1.08488 58.1602 1.11197 58.0444 1.17378C58.0144 1.19055 57.989 1.21426 57.9702 1.24289C57.9515 1.27152 57.94 1.30423 57.9366 1.33824C57.9366 1.44851 58.0592 1.72449 58.3043 2.16619L59.4311 4.21868L60.5512 2.34945C60.8291 1.89209 60.968 1.58853 60.968 1.4388C60.9673 1.39727 60.956 1.3566 60.9352 1.32061C60.9144 1.28461 60.8847 1.25446 60.8489 1.23298C60.744 1.15686 60.5521 1.11175 60.2742 1.09577V0.927551H62.1798Z" fill="#1C191A"/>
<path d="M66.7097 0.785664L66.7598 2.85319H66.5707C66.5039 2.3725 66.273 1.92922 65.9166 1.59764C65.5675 1.28438 65.1894 1.12775 64.7823 1.12775C64.512 1.11292 64.2463 1.2021 64.0403 1.37679C63.9554 1.44669 63.8868 1.53422 63.8394 1.63325C63.7921 1.73228 63.7671 1.84041 63.7662 1.95006C63.7632 2.07825 63.7959 2.20477 63.8607 2.31564C63.9739 2.48389 64.119 2.62851 64.288 2.74136C64.6099 2.93885 64.9432 3.11741 65.2862 3.2761C66.0159 3.63322 66.508 3.96997 66.7626 4.28637C67.0113 4.59482 67.1449 4.97935 67.1407 5.37464C67.142 5.62807 67.0882 5.87878 66.983 6.1096C66.8778 6.34042 66.7236 6.5459 66.531 6.71196C66.1258 7.08787 65.6101 7.27583 64.9837 7.27583C64.7965 7.27682 64.6097 7.25696 64.4269 7.21662C64.2022 7.15987 63.9825 7.08507 63.77 6.99295C63.6561 6.93911 63.5329 6.90722 63.407 6.89898C63.3149 6.90374 63.2264 6.93655 63.1537 6.99295C63.0564 7.06489 62.9814 7.16259 62.9372 7.27489H62.7671V4.92824H62.9372C63.0727 5.58609 63.3327 6.08731 63.7171 6.4319C64.1015 6.77649 64.518 6.95066 64.9667 6.95442C65.2671 6.96958 65.5618 6.86855 65.789 6.67249C65.9439 6.54506 66.048 6.36691 66.0827 6.17004C66.1173 5.97316 66.0802 5.77045 65.9781 5.59831C65.8861 5.4461 65.7651 5.31328 65.6217 5.20736C65.3537 5.02073 65.0689 4.85903 64.771 4.72431C64.2039 4.44739 63.7965 4.21119 63.5488 4.01571C63.315 3.8373 63.1201 3.61348 62.976 3.35786C62.8419 3.11391 62.7729 2.83986 62.7756 2.56186C62.7724 2.32505 62.8195 2.09024 62.9138 1.87276C63.0081 1.65528 63.1475 1.46002 63.3229 1.29973C63.5069 1.12658 63.7236 0.991413 63.9605 0.902047C64.1974 0.812682 64.4497 0.770889 64.7029 0.779085C64.9012 0.778758 65.0987 0.803068 65.2909 0.851449C65.4725 0.902647 65.6488 0.970933 65.8174 1.05538C65.9519 1.13113 66.0993 1.18147 66.2522 1.20387C66.2872 1.20592 66.3222 1.20043 66.3548 1.18778C66.3874 1.17513 66.4169 1.15561 66.4413 1.13057C66.5108 1.02474 66.5551 0.904522 66.5707 0.779085L66.7097 0.785664Z" fill="#1C191A"/>
<path d="M19.2308 10.1638L19.263 10.8423H19.1807C19.1738 10.7542 19.1521 10.6678 19.1165 10.5867C19.0777 10.5094 19.016 10.4458 18.9397 10.4044C18.849 10.3613 18.749 10.341 18.6486 10.3452H18.2431V12.5556C18.2431 12.7341 18.262 12.845 18.3007 12.8892C18.3338 12.921 18.3734 12.9455 18.4167 12.9609C18.4601 12.9762 18.5063 12.9823 18.5522 12.9785H18.6524V13.0574H17.4235V12.9785H17.5266C17.5761 12.9834 17.626 12.9758 17.6718 12.9564C17.7175 12.937 17.7577 12.9065 17.7884 12.8676C17.8294 12.7689 17.8456 12.6619 17.8357 12.5556V10.3452H17.4859C17.3882 10.3408 17.2904 10.351 17.1957 10.3753C17.1178 10.4063 17.0517 10.4609 17.0067 10.5313C16.9485 10.625 16.916 10.7323 16.9122 10.8423H16.8252L16.8592 10.1638H19.2308Z" fill="#1C191A"/>
<path d="M22.1954 11.8413C22.1801 12.0869 22.2558 12.3296 22.4081 12.5236C22.468 12.6001 22.5445 12.6622 22.6319 12.7051C22.7193 12.7481 22.8154 12.7709 22.9129 12.7717C23.0335 12.774 23.1514 12.7367 23.2485 12.6655C23.3608 12.5696 23.4437 12.4442 23.4876 12.3037L23.5538 12.3469C23.5219 12.5462 23.4307 12.7315 23.2919 12.8788C23.2248 12.9561 23.1414 13.0177 23.0477 13.0593C22.9539 13.1009 22.852 13.1214 22.7494 13.1194C22.6344 13.12 22.5207 13.0958 22.4161 13.0484C22.3115 13.001 22.2185 12.9316 22.1435 12.845C21.9673 12.6403 21.877 12.3762 21.8911 12.1073C21.8911 11.7736 21.9771 11.5124 22.1501 11.3254C22.2311 11.2343 22.331 11.162 22.443 11.1133C22.555 11.0646 22.6763 11.0408 22.7985 11.0434C22.8992 11.0401 22.9995 11.0576 23.0931 11.0949C23.1866 11.1321 23.2714 11.1881 23.342 11.2596C23.4144 11.3373 23.4705 11.4286 23.5068 11.5282C23.5432 11.6278 23.5592 11.7336 23.5538 11.8394L22.1954 11.8413ZM22.1954 11.7172H23.1057C23.1047 11.6271 23.0894 11.5377 23.0603 11.4522C23.0273 11.375 22.9716 11.3095 22.9006 11.2643C22.8351 11.22 22.7577 11.1961 22.6785 11.1957C22.6188 11.1961 22.5599 11.2084 22.5051 11.232C22.4504 11.2556 22.401 11.2899 22.3599 11.3329C22.2611 11.4369 22.2028 11.5725 22.1954 11.7154V11.7172Z" fill="#1C191A"/>
<path d="M27.9206 12.3112C27.8843 12.5374 27.7752 12.7458 27.6096 12.9051C27.4717 13.0373 27.288 13.112 27.0964 13.1138C26.9841 13.1125 26.8735 13.0866 26.7725 13.0379C26.6715 12.9891 26.5826 12.9188 26.5122 12.8318C26.3384 12.6205 26.2498 12.3526 26.2636 12.08C26.2575 11.9428 26.2787 11.8057 26.3261 11.6767C26.3734 11.5476 26.446 11.4292 26.5396 11.3282C26.6232 11.2365 26.7254 11.1635 26.8395 11.114C26.9535 11.0644 27.0768 11.0394 27.2013 11.0406C27.372 11.0343 27.5394 11.0883 27.6739 11.1928C27.7275 11.2282 27.7723 11.2751 27.805 11.3301C27.8378 11.3851 27.8576 11.4468 27.863 11.5105C27.8638 11.5347 27.8596 11.5589 27.8505 11.5814C27.8413 11.6039 27.8276 11.6242 27.81 11.6411C27.7901 11.6586 27.7669 11.672 27.7418 11.6806C27.7166 11.6891 27.69 11.6926 27.6635 11.6909C27.6278 11.6931 27.5922 11.6869 27.5593 11.6728C27.5265 11.6588 27.4974 11.6373 27.4745 11.6101C27.4439 11.5581 27.4273 11.4992 27.4263 11.4391C27.4223 11.3677 27.3912 11.3005 27.3393 11.2511C27.28 11.2056 27.2061 11.1829 27.1313 11.1872C27.0654 11.1851 27 11.1982 26.9401 11.2256C26.8802 11.253 26.8275 11.2939 26.7863 11.3451C26.6642 11.5029 26.6025 11.6988 26.6124 11.8977C26.6082 12.1159 26.6683 12.3305 26.7854 12.5151C26.8318 12.5972 26.8995 12.6653 26.9815 12.7125C27.0635 12.7596 27.1567 12.7839 27.2514 12.783C27.3909 12.7837 27.5257 12.7328 27.6295 12.6401C27.7316 12.5397 27.81 12.4181 27.8592 12.2839L27.9206 12.3112Z" fill="#1C191A"/>
<path d="M31.214 10.0237V11.4532C31.3221 11.3231 31.4496 11.2102 31.5921 11.1186C31.6775 11.0716 31.7734 11.0464 31.871 11.0453C31.9734 11.0443 32.0732 11.0774 32.1546 11.1393C32.2435 11.2135 32.3058 11.3144 32.3323 11.4268C32.3669 11.5908 32.3809 11.7585 32.3739 11.9259V12.6176C32.3685 12.7032 32.3784 12.7891 32.4032 12.8713C32.4177 12.9055 32.4433 12.934 32.4759 12.9521C32.5356 12.9771 32.6005 12.9874 32.665 12.9822V13.0593H31.7037V12.9822H31.7481C31.8139 12.9882 31.88 12.9738 31.9372 12.9408C31.9753 12.9096 32.0019 12.8666 32.0128 12.8187C32.0187 12.7518 32.0209 12.6847 32.0194 12.6176V11.9259C32.0265 11.785 32.015 11.6437 31.9854 11.5058C31.9679 11.4453 31.9307 11.3924 31.8795 11.3554C31.8276 11.3208 31.7661 11.3034 31.7037 11.3056C31.6272 11.3068 31.5521 11.3258 31.4844 11.3611C31.3816 11.4198 31.2895 11.4954 31.2122 11.5847V12.6185C31.2065 12.7025 31.2142 12.7868 31.2348 12.8685C31.2532 12.9038 31.2823 12.9324 31.318 12.9502C31.3851 12.9772 31.4576 12.9884 31.5298 12.9831V13.0602H30.5571V12.9831C30.6281 12.9866 30.6988 12.9728 30.7632 12.9427C30.7951 12.9248 30.8196 12.8961 30.8322 12.8619C30.854 12.7827 30.8626 12.7005 30.8577 12.6185V10.847C30.8618 10.7096 30.8565 10.572 30.8416 10.4354C30.8372 10.3962 30.8199 10.3595 30.7925 10.3311C30.7672 10.3113 30.7357 10.3013 30.7036 10.3029C30.6534 10.3071 30.6041 10.3185 30.5571 10.3367L30.5269 10.2624L31.1157 10.0237H31.214Z" fill="#1C191A"/>
<path d="M35.8416 11.4588C36.0722 11.1831 36.2928 11.0453 36.5033 11.0453C36.6017 11.0426 36.6985 11.0705 36.7802 11.1252C36.8674 11.1919 36.9318 11.2838 36.9645 11.3883C37.0019 11.5158 37.0179 11.6485 37.0118 11.7811V12.6157C37.0065 12.7008 37.0167 12.7861 37.042 12.8675C37.0578 12.9027 37.0847 12.9317 37.1186 12.9502C37.1784 12.9747 37.2431 12.985 37.3077 12.9803V13.0574H36.3378V12.9803H36.3785C36.4443 12.9862 36.5103 12.9717 36.5675 12.939C36.6062 12.908 36.6332 12.865 36.6441 12.8168C36.6523 12.7501 36.6551 12.6828 36.6526 12.6157V11.8159C36.6616 11.6831 36.6376 11.5501 36.5827 11.4287C36.5589 11.3885 36.5242 11.3558 36.4826 11.3343C36.4409 11.3129 36.394 11.3036 36.3473 11.3075C36.1771 11.3075 36.0079 11.4015 35.8387 11.5894V12.6232C35.8325 12.7057 35.8405 12.7886 35.8624 12.8685C35.8793 12.9078 35.9085 12.9407 35.9456 12.9624C36.014 12.9866 36.0868 12.9962 36.1592 12.9906V13.0677H35.1894V12.9906H35.2328C35.2702 12.9953 35.3081 12.9909 35.3433 12.9778C35.3785 12.9647 35.41 12.9433 35.4351 12.9155C35.4782 12.8253 35.4962 12.7254 35.4871 12.626V11.9005C35.4915 11.7575 35.4864 11.6143 35.472 11.4719C35.4669 11.4325 35.4494 11.3956 35.4219 11.3667C35.3964 11.3474 35.365 11.3378 35.333 11.3394C35.2836 11.3413 35.2349 11.3522 35.1894 11.3714L35.1572 11.2943L35.7499 11.0556H35.8444L35.8416 11.4588Z" fill="#1C191A"/>
<path d="M40.8631 11.0453C41.0008 11.0412 41.1376 11.0696 41.2622 11.1282C41.3867 11.1869 41.4955 11.2741 41.5796 11.3827C41.7303 11.569 41.8115 11.8015 41.8093 12.0406C41.8069 12.2247 41.7636 12.406 41.6826 12.5715C41.612 12.7349 41.4941 12.8736 41.344 12.9702C41.1938 13.0667 41.0182 13.1167 40.8394 13.1138C40.7016 13.1177 40.565 13.0875 40.4417 13.026C40.3185 12.9645 40.2125 12.8736 40.1333 12.7614C39.9878 12.5699 39.9101 12.336 39.9121 12.096C39.9136 11.9097 39.9597 11.7264 40.0464 11.5613C40.1179 11.4058 40.233 11.2741 40.3778 11.182C40.5226 11.0898 40.6911 11.0411 40.8631 11.0416V11.0453ZM40.7969 11.1844C40.7159 11.1854 40.6368 11.2085 40.5681 11.2511C40.4808 11.307 40.4143 11.3899 40.3791 11.487C40.3278 11.6256 40.3037 11.7727 40.3082 11.9203C40.3016 12.176 40.3605 12.4292 40.4793 12.6561C40.5927 12.8629 40.743 12.9653 40.9292 12.9653C40.9959 12.9661 41.0618 12.9511 41.1215 12.9215C41.1811 12.8919 41.2329 12.8486 41.2724 12.7952C41.3622 12.6806 41.4075 12.486 41.4075 12.2078C41.4075 11.8607 41.3322 11.5876 41.1816 11.3884C41.1394 11.3253 41.0822 11.2737 41.0151 11.2379C40.948 11.2022 40.873 11.1835 40.7969 11.1835V11.1844Z" fill="#1C191A"/>
<path d="M45.2099 10.0237V12.6157C45.2046 12.6977 45.2136 12.7801 45.2364 12.8591C45.2528 12.8987 45.2821 12.9318 45.3196 12.9531C45.3857 12.9788 45.4568 12.9894 45.5275 12.9841V13.0611H44.5634V12.9841C44.6277 12.9892 44.6923 12.9799 44.7524 12.9568C44.7877 12.9347 44.8146 12.9017 44.829 12.8628C44.853 12.7834 44.8626 12.7003 44.8574 12.6176V10.8404C44.8616 10.7046 44.8565 10.5686 44.8422 10.4335C44.8381 10.395 44.8211 10.3589 44.794 10.3311C44.7702 10.3115 44.7398 10.3015 44.709 10.3029C44.66 10.3056 44.612 10.317 44.5672 10.3367L44.5312 10.2624L45.1173 10.0237H45.2099Z" fill="#1C191A"/>
<path d="M49.1526 11.0453C49.2904 11.0413 49.4271 11.0698 49.5516 11.1284C49.6762 11.1871 49.785 11.2742 49.8691 11.3827C50.0199 11.569 50.1011 11.8015 50.0988 12.0406C50.0964 12.2247 50.0532 12.406 49.9721 12.5715C49.9015 12.7349 49.7836 12.8736 49.6335 12.9702C49.4834 13.0667 49.3078 13.1167 49.129 13.1138C48.9911 13.1179 48.8544 13.0879 48.7311 13.0264C48.6078 12.9648 48.5019 12.8738 48.4229 12.7614C48.2774 12.5699 48.1996 12.336 48.2017 12.096C48.2032 11.9097 48.2492 11.7264 48.3359 11.5613C48.4073 11.4057 48.5223 11.2739 48.6672 11.1817C48.812 11.0895 48.9806 11.0408 49.1526 11.0416V11.0453ZM49.0855 11.1844C49.0048 11.1855 48.926 11.2085 48.8577 11.2511C48.7703 11.307 48.7039 11.3899 48.6687 11.487C48.6169 11.6255 48.5928 11.7726 48.5978 11.9203C48.5911 12.176 48.65 12.4292 48.7688 12.6561C48.8823 12.8629 49.0326 12.9653 49.2178 12.9653C49.2847 12.9662 49.3507 12.9512 49.4105 12.9216C49.4704 12.892 49.5223 12.8487 49.5619 12.7952C49.6517 12.6806 49.6971 12.486 49.6971 12.2078C49.6971 11.8608 49.6218 11.5876 49.4712 11.3884C49.4287 11.3251 49.3712 11.2733 49.3038 11.2376C49.2363 11.2019 49.161 11.1833 49.0846 11.1835L49.0855 11.1844Z" fill="#1C191A"/>
<path d="M53.3485 12.345C53.2342 12.2922 53.1379 12.2072 53.0716 12.1007C53.0083 11.996 52.9756 11.876 52.9771 11.7539C52.9764 11.6598 52.9957 11.5667 53.0337 11.4806C53.0716 11.3945 53.1274 11.3172 53.1973 11.2539C53.2733 11.1836 53.3625 11.1289 53.4598 11.0931C53.5572 11.0573 53.6607 11.041 53.7645 11.0453C53.9371 11.0409 54.1071 11.0884 54.2522 11.1815H54.6681C54.7041 11.1798 54.7402 11.1817 54.7759 11.1872C54.7849 11.1902 54.7924 11.1966 54.7967 11.205C54.8072 11.2263 54.8117 11.25 54.8099 11.2736C54.8114 11.2998 54.8079 11.3259 54.7995 11.3507C54.7936 11.3582 54.7857 11.3641 54.7768 11.3676C54.7409 11.3736 54.7045 11.3759 54.6681 11.3742H54.4129C54.5043 11.5047 54.5451 11.6637 54.5278 11.8218C54.5104 11.9799 54.436 12.1263 54.3184 12.2341C54.1616 12.3691 53.9583 12.4385 53.7512 12.4277C53.6505 12.4272 53.5503 12.413 53.4535 12.3854C53.4028 12.4248 53.3596 12.4729 53.3259 12.5273C53.3063 12.5585 53.2949 12.594 53.2928 12.6307C53.2931 12.6443 53.2965 12.6576 53.3025 12.6698C53.3085 12.6819 53.3171 12.6926 53.3277 12.7012C53.3682 12.73 53.4161 12.7469 53.4658 12.7501C53.5064 12.7557 53.6066 12.7604 53.7663 12.7651C54.0613 12.7726 54.2522 12.782 54.3392 12.7952C54.4591 12.8072 54.5716 12.8588 54.6587 12.9418C54.6975 12.9804 54.7281 13.0265 54.7486 13.0772C54.7691 13.1279 54.779 13.1822 54.7778 13.2369C54.774 13.3239 54.7517 13.4092 54.7124 13.4871C54.6732 13.565 54.6178 13.6338 54.5499 13.6889C54.3109 13.9021 53.9974 14.0137 53.6765 14C53.4298 14.0075 53.1864 13.9421 52.9771 13.812C52.8693 13.7406 52.8154 13.6673 52.8154 13.5902C52.8159 13.5547 52.8243 13.5197 52.84 13.4878C52.8811 13.409 52.9313 13.3352 52.9894 13.2679C52.9998 13.2547 53.0725 13.1739 53.2086 13.0376C53.1506 13.0059 53.0974 12.9661 53.0508 12.9192C53.0211 12.8868 53.0046 12.8446 53.0045 12.8008C53.0089 12.7381 53.0301 12.6778 53.0659 12.626C53.1462 12.5194 53.2414 12.4248 53.3485 12.345ZM53.3268 13.0574C53.2678 13.1185 53.2167 13.1867 53.1746 13.2604C53.1427 13.3126 53.1248 13.3722 53.1226 13.4333C53.1256 13.4714 53.1387 13.508 53.1607 13.5394C53.1826 13.5708 53.2125 13.5958 53.2474 13.6118C53.4381 13.7113 53.6525 13.7571 53.8675 13.7443C54.1246 13.7443 54.3155 13.6992 54.4346 13.609C54.486 13.5786 54.5295 13.5366 54.5614 13.4862C54.5932 13.4359 54.6127 13.3788 54.618 13.3196C54.6191 13.2851 54.609 13.2511 54.5893 13.2227C54.5696 13.1943 54.5412 13.1729 54.5084 13.1617C54.365 13.1206 54.2161 13.1019 54.0669 13.1062C53.8195 13.103 53.5725 13.0867 53.3268 13.0574ZM53.7219 11.1477C53.6708 11.1473 53.6202 11.1584 53.5741 11.1802C53.5279 11.202 53.4873 11.234 53.4554 11.2736C53.3756 11.3861 53.3378 11.5227 53.3485 11.6599C53.3369 11.8454 53.3882 12.0293 53.4941 12.1824C53.5266 12.2267 53.5693 12.2627 53.6187 12.2872C53.668 12.3117 53.7225 12.3241 53.7777 12.3234C53.8286 12.3246 53.8791 12.3144 53.9255 12.2934C53.9718 12.2724 54.0127 12.2412 54.0452 12.2022C54.1249 12.0911 54.1624 11.9556 54.1511 11.8197C54.1626 11.6312 54.1104 11.4442 54.0027 11.2887C53.9708 11.2444 53.9286 11.2085 53.8797 11.1839C53.8308 11.1594 53.7767 11.1469 53.7219 11.1477Z" fill="#1C191A"/>
<path d="M58.1323 11.0453V12.6157C58.127 12.6981 58.1359 12.7807 58.1588 12.8601C58.1739 12.8993 58.2019 12.9324 58.2382 12.954C58.2979 12.9786 58.3627 12.9889 58.4272 12.9841V13.0612H57.4725V12.9841C57.5368 12.9884 57.6012 12.9791 57.6616 12.9568C57.6975 12.9351 57.7251 12.902 57.74 12.8629C57.7649 12.7836 57.7749 12.7004 57.7693 12.6176V11.8658C57.7737 11.7282 57.767 11.5906 57.7495 11.4541C57.7444 11.4187 57.7282 11.3858 57.7031 11.3602C57.6774 11.3416 57.6461 11.3323 57.6143 11.3338C57.5642 11.3358 57.5149 11.3466 57.4687 11.3658L57.4385 11.2887L58.0311 11.05L58.1323 11.0453ZM57.9536 10.0238C57.9822 10.0234 58.0106 10.0287 58.0371 10.0394C58.0635 10.05 58.0876 10.0659 58.1079 10.0859C58.1281 10.106 58.1441 10.1298 58.155 10.1561C58.1658 10.1824 58.1713 10.2106 58.171 10.239C58.1713 10.2674 58.1658 10.2956 58.1549 10.3219C58.1441 10.3482 58.128 10.3721 58.1077 10.3922C58.0772 10.4224 58.0383 10.443 57.9961 10.4513C57.9538 10.4596 57.91 10.4553 57.8702 10.4389C57.8303 10.4226 57.7963 10.3948 57.7723 10.3593C57.7483 10.3237 57.7354 10.2818 57.7353 10.239C57.735 10.2105 57.7405 10.1822 57.7514 10.1559C57.7623 10.1295 57.7784 10.1056 57.7988 10.0856C57.8191 10.0655 57.8433 10.0497 57.8699 10.0391C57.8965 10.0285 57.925 10.0233 57.9536 10.0238Z" fill="#1C191A"/>
<path d="M61.441 11.8413C61.4249 12.0869 61.5003 12.3297 61.6528 12.5236C61.7128 12.5999 61.7893 12.6619 61.8767 12.7049C61.9641 12.7478 62.06 12.7706 62.1575 12.7717C62.2784 12.774 62.3966 12.7367 62.494 12.6655C62.6061 12.5694 62.6889 12.4441 62.7332 12.3037L62.7993 12.3469C62.7671 12.5461 62.6759 12.7313 62.5375 12.8788C62.4702 12.9561 62.3866 13.0178 62.2927 13.0593C62.1988 13.1009 62.0968 13.1214 61.994 13.1194C61.879 13.1199 61.7654 13.0957 61.6608 13.0483C61.5561 13.0009 61.4631 12.9316 61.3881 12.845C61.212 12.6403 61.1216 12.3762 61.1357 12.1073C61.1357 11.7736 61.2217 11.5124 61.3947 11.3254C61.4758 11.2343 61.576 11.1619 61.6881 11.1132C61.8003 11.0645 61.9217 11.0407 62.0441 11.0434C62.1446 11.0401 62.2448 11.0577 62.3382 11.0949C62.4316 11.1321 62.5162 11.1882 62.5867 11.2596C62.6592 11.3372 62.7154 11.4285 62.752 11.5281C62.7885 11.6277 62.8046 11.7335 62.7993 11.8394L61.441 11.8413ZM61.441 11.7172H62.3503C62.35 11.6271 62.335 11.5376 62.3059 11.4522C62.2723 11.3754 62.2167 11.3101 62.1462 11.2643C62.0805 11.2202 62.0033 11.1964 61.924 11.1957C61.8643 11.1961 61.8052 11.2085 61.7503 11.2321C61.6954 11.2557 61.6459 11.2899 61.6045 11.3329C61.5057 11.4368 61.4477 11.5725 61.441 11.7154V11.7172Z" fill="#1C191A"/>
<path d="M66.7671 11.0453V11.7107H66.6962C66.6676 11.5518 66.5949 11.404 66.4864 11.284C66.3963 11.2073 66.2806 11.1671 66.1621 11.1713C66.0742 11.1672 65.9878 11.1952 65.9192 11.2502C65.8913 11.2704 65.8683 11.2967 65.852 11.3269C65.8356 11.3572 65.8263 11.3907 65.8247 11.425C65.823 11.4992 65.8474 11.5717 65.8937 11.6299C65.969 11.7113 66.0613 11.7754 66.164 11.8178L66.4779 11.9691C66.7684 12.1101 66.9133 12.2956 66.9127 12.5255C66.9153 12.608 66.8983 12.6899 66.8632 12.7647C66.828 12.8395 66.7757 12.905 66.7104 12.9559C66.5833 13.062 66.4226 13.1199 66.2567 13.1194C66.1171 13.1164 65.9785 13.0949 65.8445 13.0555C65.8071 13.0425 65.7679 13.0352 65.7283 13.0339C65.7114 13.0344 65.6951 13.04 65.6814 13.0499C65.6677 13.0598 65.6574 13.0735 65.6517 13.0894H65.5808V12.3911H65.6517C65.6766 12.5619 65.7569 12.72 65.8805 12.8413C65.9824 12.938 66.1176 12.9924 66.2586 12.9935C66.3475 12.9971 66.4343 12.966 66.5005 12.907C66.5304 12.881 66.5543 12.8489 66.5706 12.813C66.5869 12.777 66.5953 12.7379 66.5951 12.6984C66.596 12.6522 66.5872 12.6063 66.5691 12.5637C66.551 12.5211 66.5241 12.4828 66.4901 12.4512C66.3641 12.3483 66.2245 12.263 66.0752 12.1975C65.9217 12.1317 65.7832 12.0358 65.6678 11.9156C65.6016 11.827 65.5682 11.7185 65.5733 11.6083C65.5713 11.5332 65.585 11.4586 65.6137 11.3892C65.6423 11.3198 65.6852 11.2571 65.7396 11.2051C65.7966 11.1506 65.8641 11.1081 65.938 11.0802C66.0119 11.0522 66.0907 11.0394 66.1697 11.0425C66.2661 11.0451 66.3616 11.0616 66.4533 11.0914C66.5007 11.1077 66.5499 11.1184 66.5998 11.1233C66.6187 11.1247 66.6374 11.1193 66.6527 11.1083C66.6724 11.0898 66.6879 11.0674 66.6981 11.0425L66.7671 11.0453Z" fill="#1C191A"/>
<path d="M67.9534 1.3157V0.155065H67.5186V0H68.5659V0.155065H68.1282V1.3157H67.9534Z" fill="#1C191A"/>
<path d="M68.7397 1.3157V0H69.0025L69.3154 0.929449C69.3438 1.01685 69.3646 1.08075 69.3778 1.12398C69.3929 1.07606 69.4165 1.00651 69.4487 0.913473L69.7644 0H69.9998V1.3157H69.8315V0.214271L69.4477 1.3157H69.2861L68.908 0.195476V1.3157H68.7397Z" fill="#1C191A"/>
</g>
<defs>
<clipPath id="clip0_1_1342">
<rect width="70" height="14" fill="white"/>
</clipPath>
</defs>
</svg>
