<svg width="15" height="13" viewBox="0 0 15 13" fill="none" xmlns="http://www.w3.org/2000/svg">
<path d="M13.2153 8.35714L14.0903 13H0.090332L0.965332 8.35714H2.55127C2.31885 7.93155 2.14339 7.48419 2.0249 7.01507C1.90641 6.54594 1.84489 6.06473 1.84033 5.57143C1.84033 5.05878 1.90186 4.56548 2.0249 4.09152C2.14795 3.61756 2.32568 3.17504 2.55811 2.76395C2.79053 2.35286 3.06396 1.97563 3.37842 1.63225C3.69287 1.28888 4.04606 0.998698 4.43799 0.761719C4.82992 0.52474 5.24919 0.338542 5.6958 0.203125C6.14242 0.0677083 6.60726 0 7.09033 0C7.5734 0 8.03825 0.0652902 8.48486 0.195871C8.93148 0.326451 9.34847 0.515067 9.73584 0.761719C10.1232 1.00837 10.4787 1.29855 10.8022 1.63225C11.1258 1.96596 11.3993 2.34077 11.6226 2.7567C11.8459 3.17262 12.0213 3.61756 12.1489 4.09152C12.2765 4.56548 12.3403 5.05878 12.3403 5.57143C12.3403 6.06473 12.2811 6.54594 12.1626 7.01507C12.0441 7.48419 11.8664 7.93155 11.6294 8.35714H13.2153ZM11.4653 5.57143C11.4653 5.41667 11.4585 5.2619 11.4448 5.10714C11.4312 4.95238 11.4084 4.79762 11.3765 4.64286H9.67432C9.70166 4.95722 9.71533 5.26674 9.71533 5.57143C9.71533 5.88095 9.70166 6.19048 9.67432 6.5H11.3765C11.4038 6.34524 11.4243 6.19048 11.438 6.03571C11.4517 5.88095 11.4608 5.72619 11.4653 5.57143ZM5.38135 6.5H8.79932C8.82666 6.19048 8.84033 5.88095 8.84033 5.57143C8.84033 5.26674 8.82666 4.95722 8.79932 4.64286H5.38135C5.354 4.95722 5.34033 5.26674 5.34033 5.57143C5.34033 5.88095 5.354 6.19048 5.38135 6.5ZM8.67627 7.42857H5.50439C5.52262 7.53981 5.55452 7.6849 5.6001 7.86384C5.64567 8.04278 5.70264 8.23865 5.771 8.45145C5.83936 8.66425 5.91911 8.87221 6.01025 9.07533C6.1014 9.27846 6.20166 9.46708 6.31104 9.64118C6.42041 9.81529 6.54118 9.95312 6.67334 10.0547C6.8055 10.1562 6.9445 10.2094 7.09033 10.2143C7.23617 10.2143 7.37288 10.1611 7.50049 10.0547C7.62809 9.94829 7.74886 9.81045 7.86279 9.64118C7.97673 9.47191 8.07699 9.2833 8.16357 9.07533C8.25016 8.86737 8.32992 8.65941 8.40283 8.45145C8.47575 8.24349 8.53271 8.05004 8.57373 7.87109C8.61475 7.69215 8.64893 7.54464 8.67627 7.42857ZM5.41553 9.85882C5.20589 9.49126 5.03727 9.09952 4.90967 8.68359C4.78206 8.26767 4.68408 7.84933 4.61572 7.42857H3.08447C3.19385 7.6849 3.33057 7.93397 3.49463 8.17578C3.65869 8.4176 3.84098 8.64732 4.0415 8.86495C4.24202 9.08259 4.46077 9.27362 4.69775 9.43806C4.93473 9.60249 5.17399 9.74275 5.41553 9.85882ZM9.56494 7.42857C9.49202 7.84449 9.39404 8.26042 9.271 8.67634C9.14795 9.09226 8.98161 9.48642 8.77197 9.85882C9.01807 9.74275 9.25505 9.60007 9.48291 9.4308C9.71077 9.26153 9.92725 9.07292 10.1323 8.86495C10.3374 8.65699 10.522 8.42969 10.686 8.18304C10.8501 7.93638 10.9868 7.6849 11.0962 7.42857H9.56494ZM11.0962 3.71429C10.8638 3.16778 10.5493 2.68415 10.1528 2.26339C9.75635 1.84263 9.29378 1.51618 8.76514 1.28404C8.97477 1.6516 9.14111 2.04334 9.26416 2.45926C9.38721 2.87519 9.48747 3.29353 9.56494 3.71429H11.0962ZM7.09033 0.928571C6.9445 0.928571 6.80778 0.981771 6.68018 1.08817C6.55257 1.19457 6.4318 1.3324 6.31787 1.50167C6.20394 1.67094 6.10368 1.85956 6.01709 2.06752C5.9305 2.27548 5.85075 2.48344 5.77783 2.69141C5.70492 2.89937 5.64567 3.09282 5.6001 3.27176C5.55452 3.45071 5.52262 3.59821 5.50439 3.71429H8.67627C8.65348 3.60305 8.62158 3.45796 8.58057 3.27902C8.53955 3.10007 8.48258 2.9042 8.40967 2.69141C8.33675 2.47861 8.257 2.27065 8.17041 2.06752C8.08382 1.8644 7.98356 1.67578 7.86963 1.50167C7.7557 1.32757 7.63493 1.18973 7.50732 1.08817C7.37972 0.986607 7.24072 0.933408 7.09033 0.928571ZM5.41553 1.28404C4.89144 1.51618 4.43115 1.84263 4.03467 2.26339C3.63818 2.68415 3.32145 3.16778 3.08447 3.71429H4.61572C4.68864 3.29353 4.78662 2.87519 4.90967 2.45926C5.03271 2.04334 5.20133 1.6516 5.41553 1.28404ZM2.8042 4.64286C2.77686 4.79762 2.75635 4.95238 2.74268 5.10714C2.729 5.2619 2.71989 5.41667 2.71533 5.57143C2.71533 5.72619 2.72217 5.88095 2.73584 6.03571C2.74951 6.19048 2.7723 6.34524 2.8042 6.5H4.50635C4.479 6.19048 4.46533 5.88095 4.46533 5.57143C4.46533 5.26674 4.479 4.95722 4.50635 4.64286H2.8042ZM1.15674 12.0714H13.0239L12.4976 9.28571H10.9937C10.7476 9.58073 10.4764 9.84189 10.1802 10.0692C9.88395 10.2965 9.56722 10.4924 9.22998 10.6568C8.89274 10.8212 8.54639 10.9422 8.19092 11.0195C7.83545 11.0969 7.46859 11.138 7.09033 11.1429C6.71663 11.1429 6.34977 11.1017 5.98975 11.0195C5.62972 10.9373 5.28337 10.8164 4.95068 10.6568C4.618 10.4972 4.30355 10.3038 4.00732 10.0765C3.7111 9.84914 3.43766 9.58557 3.18701 9.28571H1.68311L1.15674 12.0714Z" fill="white"/>
</svg>
