<svg xmlns="http://www.w3.org/2000/svg" width="32" height="32" viewBox="0 0 32 32" fill="none">
            <path d="M7.19159 1.375V1.95894C7.19159 8.331 9.57647 13.8119 13.213 15.8398V16.2206C9.57641 18.2484 7.19153 23.7294 7.19153 30.1015V30.6855H25.1133V30.1015C25.1133 23.692 22.688 18.2094 19.0177 16.2148V15.8456C22.6878 13.8508 25.1133 8.36812 25.1133 1.95888V1.375H7.19141H7.19159ZM8.37516 2.54281H23.9298C23.775 8.57062 21.2585 13.513 18.1837 14.9744L17.8498 15.1327V16.9296L18.1838 17.0877C21.2583 18.5492 23.7748 23.4901 23.9298 29.5175H8.37516C8.52866 23.5239 11.008 18.5751 14.0548 17.0839L14.383 16.9237V15.1366L14.0548 14.9765C11.0081 13.4852 8.52859 8.53644 8.37516 2.54281ZM21.7287 7.92562C18.1282 9.66375 13.9458 9.66562 10.631 8.18156C11.5469 11.3631 13.3695 13.6276 15.5139 14.0019C15.4139 14.134 15.3597 14.2951 15.3595 14.4609C15.3595 14.8834 15.7025 15.2265 16.1252 15.2265C16.5478 15.2265 16.8908 14.8834 16.8908 14.4609C16.8908 14.2909 16.8341 14.1347 16.7404 14.0077C18.9545 13.6402 20.8334 11.2533 21.7287 7.92562ZM16.1252 16.166C15.7025 16.166 15.3595 16.509 15.3595 16.9316C15.3595 17.3542 15.7025 17.6973 16.1252 17.6973C16.5478 17.6973 16.8908 17.3542 16.8908 16.9316C16.8908 16.509 16.5478 16.166 16.1252 16.166ZM16.1252 18.621C15.7025 18.621 15.3595 18.9641 15.3595 19.3866C15.3595 19.8093 15.7025 20.1523 16.1252 20.1523C16.5478 20.1523 16.8908 19.8093 16.8908 19.3866C16.8908 18.9641 16.5478 18.621 16.1252 18.621ZM16.1252 21.0918C15.7025 21.0918 15.3595 21.4348 15.3595 21.8574C15.3595 22.2799 15.7025 22.6231 16.1252 22.6231C16.5478 22.6231 16.8908 22.2799 16.8908 21.8574C16.8908 21.4348 16.5478 21.0918 16.1252 21.0918ZM16.133 23.5859C14.6823 23.6034 13.2461 25.1966 11.3947 28.3144H20.9572C19.0495 25.1268 17.5836 23.5684 16.133 23.5859Z" fill="white"/>
          </svg>
