<svg xmlns="http://www.w3.org/2000/svg" width="32" height="32" viewBox="0 0 32 32" fill="none">
            <path d="M10 13C10 12.7348 10.1054 12.4804 10.2929 12.2929C10.4804 12.1054 10.7348 12 11 12H21C21.2652 12 21.5196 12.1054 21.7071 12.2929C21.8946 12.4804 22 12.7348 22 13C22 13.2652 21.8946 13.5196 21.7071 13.7071C21.5196 13.8946 21.2652 14 21 14H11C10.7348 14 10.4804 13.8946 10.2929 13.7071C10.1054 13.5196 10 13.2652 10 13ZM11 18C10.7348 18 10.4804 18.1054 10.2929 18.2929C10.1054 18.4804 10 18.7348 10 19C10 19.2652 10.1054 19.5196 10.2929 19.7071C10.4804 19.8946 10.7348 20 11 20H21C21.2652 20 21.5196 19.8946 21.7071 19.7071C21.8946 19.5196 22 19.2652 22 19C22 18.7348 21.8946 18.4804 21.7071 18.2929C21.5196 18.1054 21.2652 18 21 18H11ZM10 25C10 24.7348 10.1054 24.4804 10.2929 24.2929C10.4804 24.1054 10.7348 24 11 24H21C21.2652 24 21.5196 24.1054 21.7071 24.2929C21.8946 24.4804 22 24.7348 22 25C22 25.2652 21.8946 25.5196 21.7071 25.7071C21.5196 25.8946 21.2652 26 21 26H11C10.7348 26 10.4804 25.8946 10.2929 25.7071C10.1054 25.5196 10 25.2652 10 25ZM11 6C10.7348 6 10.4804 6.10536 10.2929 6.29289C10.1054 6.48043 10 6.73478 10 7C10 7.26522 10.1054 7.51957 10.2929 7.70711C10.4804 7.89464 10.7348 8 11 8H16V6H11Z" fill="white"/>
            <path fill-rule="evenodd" clip-rule="evenodd" d="M27.9996 9.14114C28.0214 8.98289 28.0049 8.82173 27.9516 8.67114L27.9256 8.54514C27.852 8.23869 27.7305 7.94577 27.5656 7.67714C27.3816 7.37714 27.1216 7.11714 26.6016 6.59714L21.4216 1.41714C20.9036 0.897142 20.6436 0.637142 20.3416 0.451142C20.0366 0.264372 19.7007 0.133648 19.3496 0.0651418C19.199 0.0118321 19.0379 -0.00462724 18.8796 0.0171418C18.6576 0.00914179 18.3876 0.00914179 18.0296 0.00914179H13.6096C10.2496 0.00914179 8.56962 0.0091418 7.28963 0.663142C6.16337 1.24042 5.2469 2.15689 4.66963 3.28314C4.01563 4.56714 4.01562 6.24314 4.01562 9.60314V22.4031C4.01562 25.7631 4.01563 27.4431 4.66963 28.7231C5.2469 29.8494 6.16337 30.7659 7.28963 31.3431C8.57363 31.9971 10.2496 31.9971 13.6096 31.9971H18.4096C21.7696 31.9971 23.4496 31.9971 24.7296 31.3431C25.8575 30.7681 26.7746 29.851 27.3496 28.7231C28.0036 27.4391 28.0036 25.7631 28.0036 22.4031V9.98114C28.0036 9.62514 28.0036 9.35514 27.9936 9.13114L27.9996 9.14114ZM22.1796 29.9411C21.2796 30.0151 20.1196 30.0171 18.3996 30.0171H13.5996C11.8856 30.0171 10.7196 30.0151 9.81962 29.9411C8.94362 29.8691 8.49363 29.7391 8.18163 29.5811C7.42901 29.1977 6.81711 28.5858 6.43363 27.8331C6.27363 27.5211 6.14363 27.0711 6.07363 26.1951C5.99963 25.2951 5.99763 24.1351 5.99763 22.4151V9.61514C5.99763 7.90114 5.99963 6.73514 6.07363 5.83514C6.14563 4.95914 6.27563 4.50914 6.43363 4.19714C6.81763 3.44514 7.42963 2.83314 8.18163 2.44914C8.49363 2.28914 8.94362 2.15914 9.81962 2.08914C10.7196 2.01514 11.8796 2.01314 13.5996 2.01314H17.9996V9.01314C17.9996 9.27836 18.105 9.53271 18.2925 9.72025C18.4801 9.90778 18.7344 10.0131 18.9996 10.0131H25.9996V22.4131C25.9996 24.1271 25.9996 25.2931 25.9236 26.1931C25.8536 27.0691 25.7236 27.5191 25.5636 27.8331C25.1798 28.585 24.5679 29.1962 23.8156 29.5791C23.5036 29.7391 23.0556 29.8691 22.1776 29.9391L22.1796 29.9411ZM19.9996 2.94114L25.1796 8.12114H19.9996V2.94114Z" fill="white"/>
          </svg>
