<svg width="13" height="13" viewBox="0 0 13 13" fill="none" xmlns="http://www.w3.org/2000/svg">
<g clip-path="url(#clip0_1_1527)">
<path d="M0.8125 2.4375C0.8125 2.00652 0.983705 1.5932 1.28845 1.28845C1.5932 0.983705 2.00652 0.8125 2.4375 0.8125H10.5625C10.9935 0.8125 11.4068 0.983705 11.7115 1.28845C12.0163 1.5932 12.1875 2.00652 12.1875 2.4375V10.5625C12.1875 10.9935 12.0163 11.4068 11.7115 11.7115C11.4068 12.0163 10.9935 12.1875 10.5625 12.1875H2.4375C2.00652 12.1875 1.5932 12.0163 1.28845 11.7115C0.983705 11.4068 0.8125 10.9935 0.8125 10.5625V2.4375Z" fill="#2B7FFF"/>
<path d="M5.37928 9.34367C5.22369 9.34367 5.06809 9.28558 4.94906 9.16899L2.61556 6.87692C2.5592 6.82193 2.51441 6.75623 2.48383 6.68367C2.45325 6.61111 2.4375 6.53316 2.4375 6.45442C2.4375 6.37568 2.45325 6.29774 2.48383 6.22518C2.51441 6.15262 2.5592 6.08691 2.61556 6.03192C2.73065 5.91971 2.88504 5.85691 3.04578 5.85691C3.20652 5.85691 3.3609 5.91971 3.476 6.03192L5.37928 7.90108L9.52344 3.83127C9.63853 3.71905 9.79291 3.65625 9.95366 3.65625C10.1144 3.65625 10.2688 3.71905 10.3839 3.83127C10.4404 3.88617 10.4853 3.95185 10.516 4.02442C10.5467 4.09699 10.5625 4.17498 10.5625 4.25377C10.5625 4.33255 10.5467 4.41054 10.516 4.48311C10.4853 4.55568 10.4404 4.62136 10.3839 4.67627L5.8095 9.16858C5.69483 9.28145 5.54018 9.34439 5.37928 9.34367Z" fill="#F4F4F4"/>
</g>
<defs>
<clipPath id="clip0_1_1527">
<rect width="13" height="13" fill="white"/>
</clipPath>
</defs>
</svg>
