<svg width="13" height="13" viewBox="0 0 13 13" fill="none" xmlns="http://www.w3.org/2000/svg">
<path d="M1.68164 2.4375C1.68164 2.13913 1.80017 1.85298 2.01115 1.642C2.22212 1.43103 2.50827 1.3125 2.80664 1.3125H10.9316C11.23 1.3125 11.5162 1.43103 11.7271 1.642C11.9381 1.85298 12.0566 2.13913 12.0566 2.4375V10.5625C12.0566 10.8609 11.9381 11.147 11.7271 11.358C11.5162 11.569 11.23 11.6875 10.9316 11.6875H2.80664C2.50827 11.6875 2.22212 11.569 2.01115 11.358C1.80017 11.147 1.68164 10.8609 1.68164 10.5625V2.4375Z" stroke="#0065FF"/>
<path fill-rule="evenodd" clip-rule="evenodd" d="M5.01221 4.64258L8.72649 8.35686L5.01221 4.64258ZM8.72649 4.64258L5.01221 8.35686L8.72649 4.64258Z" fill="white"/>
<path d="M5.01221 4.64258L8.72649 8.35686M8.72649 4.64258L5.01221 8.35686" stroke="#2B7FFF" stroke-linecap="round" stroke-linejoin="round"/>
</svg>
